PathFileType	4	(X/Y/Z)	s08c0001.trc
DataRate	CameraRate	NumFrames	NumMarkers	Units	OrigDataRate	OrigDataStartFrame	OrigNumFrames
200	200	4	49	mm	200	750	2000
Frame#	Time	racr			lacr			c7			jug			rlel			rdr			llel			ldr			s2			lic			ric			lasi			rasi			rpsi			lpsi			rgt			lgt			rth1			rth2			rth3			rth4			rlfc			rmfc			rsh1			rsh2			rsh3			rsh4			rlmal			rmmal			rcal			rtoe			rmt5			rmt1			lth1			lth2			lth4			lth3			llfc			lmfc			llmal			lmmal			lcal			lmt1			lmt5			lsh1			lsh2			lsh3			lsh4			ltoe			
		X1	Y1	Z1	X2	Y2	Z2	X3	Y3	Z3	X4	Y4	Z4	X5	Y5	Z5	X6	Y6	Z6	X7	Y7	Z7	X8	Y8	Z8	X9	Y9	Z9	X10	Y10	Z10	X11	Y11	Z11	X12	Y12	Z12	X13	Y13	Z13	X14	Y14	Z14	X15	Y15	Z15	X16	Y16	Z16	X17	Y17	Z17	X18	Y18	Z18	X19	Y19	Z19	X20	Y20	Z20	X21	Y21	Z21	X22	Y22	Z22	X23	Y23	Z23	X24	Y24	Z24	X25	Y25	Z25	X26	Y26	Z26	X27	Y27	Z27	X28	Y28	Z28	X29	Y29	Z29	X30	Y30	Z30	X31	Y31	Z31	X32	Y32	Z32	X33	Y33	Z33	X34	Y34	Z34	X35	Y35	Z35	X36	Y36	Z36	X37	Y37	Z37	X38	Y38	Z38	X39	Y39	Z39	X40	Y40	Z40	X41	Y41	Z41	X42	Y42	Z42	X43	Y43	Z43	X44	Y44	Z44	X45	Y45	Z45	X46	Y46	Z46	X47	Y47	Z47	X48	Y48	Z48	X49	Y49	Z49	
750	3.7500	420.477570	1529.618774	594.022156	408.664948	1544.278198	197.444901	362.273926	1584.030518	394.514404	492.341522	1487.565308	393.056702	378.271667	1236.593750	679.971008	450.955109	959.557922	791.890198	385.785248	1243.923340	97.507950	441.519318	972.124084	-6.409706	327.190338	1028.219849	403.283112	472.618683	1094.443848	237.345016	478.874603	1100.251953	554.766357	522.569397	1036.559204	268.373383	535.447754	1033.896606	520.119934	348.952240	1067.915283	450.667175	347.638306	1075.685791	351.439728	422.767670	955.578247	576.255859	427.033417	943.652100	210.954819	435.743286	804.241455	592.208801	457.299774	718.377930	587.895996	494.448822	719.132202	579.746094	434.274536	635.125916	577.862610	438.094635	512.095581	558.756775	422.439209	499.948700	455.310760	398.411682	387.310608	593.296814	421.478394	301.311768	575.800232	398.200989	218.366165	569.232910	448.110504	305.961273	545.758179	392.468628	97.766701	555.641235	407.429077	122.386032	469.938873	321.400116	65.435715	507.916687	612.023193	79.109215	510.523804	535.365662	47.902798	577.136841	538.680725	47.754211	464.035156	443.902649	814.965759	188.775253	463.326874	729.680847	192.597519	499.509705	730.494263	201.063202	436.155853	645.370728	195.627167	430.211548	518.648743	216.392303	435.434387	496.293121	314.845612	381.842590	106.974251	221.604477	411.959808	126.496010	301.792419	325.116974	74.236031	264.433960	541.927673	47.216644	295.859222	528.697144	43.058670	181.183243	408.659515	394.115814	190.145187	422.312531	310.660370	207.428192	393.779144	227.062805	207.376678	443.705200	313.163727	239.863388	610.492615	81.670052	243.122635	
751	3.7550	420.537994	1529.613037	594.018860	408.752777	1544.249390	197.411194	362.324615	1584.039429	394.531555	492.417938	1487.545532	393.059143	378.319763	1236.603027	679.984863	450.994965	959.541870	791.887085	385.855774	1243.914062	97.494431	441.602570	972.115967	-6.397645	327.200348	1028.256714	403.248291	472.648621	1094.450195	237.337158	478.936859	1100.242554	554.755920	522.613953	1036.557007	268.391846	535.478333	1033.903076	520.111755	348.985748	1067.910645	450.680725	347.669617	1075.688721	351.455536	422.795868	955.581909	576.261353	427.060638	943.653992	210.942947	435.764435	804.246704	592.213989	457.312164	718.386841	587.879944	494.465393	719.130371	579.732849	434.200531	635.044189	577.712708	438.091370	512.097595	558.764404	422.432068	499.940552	455.303558	398.427979	387.311035	593.290161	421.476959	301.351776	575.789246	398.201691	218.365799	569.234802	448.100800	305.947784	545.737549	392.475220	97.779213	555.634399	407.429596	122.380272	469.946655	321.420959	65.420120	507.933502	612.044922	79.118111	510.515472	535.408386	47.898109	577.134033	538.646057	47.772968	464.040741	443.942200	814.972778	188.764938	463.367584	729.685669	192.580811	499.590118	730.498352	201.079163	436.198700	645.380005	195.622559	429.951965	518.562927	216.292099	435.456818	496.280151	314.830811	381.843201	106.973061	221.607361	411.952759	126.479836	301.796997	325.121033	74.222885	264.424500	541.938110	47.230343	295.855927	528.716492	43.055584	181.165695	408.704865	394.119476	190.163193	422.348511	310.652557	207.429352	393.784058	227.032898	207.353378	443.708740	313.137817	239.848679	610.481445	81.674049	243.127716	
752	3.7600	420.595917	1529.608398	594.014648	408.830872	1544.243286	197.398773	362.383362	1584.030884	394.508270	492.471039	1487.558838	393.085480	378.365692	1236.596313	679.981689	451.035980	959.511780	791.856262	385.933960	1243.893677	97.508720	441.684662	972.115967	-6.395782	327.231628	1028.161377	403.300140	472.675018	1094.442139	237.359512	478.969208	1100.242310	554.765930	522.647339	1036.562378	268.392181	535.501587	1033.877197	520.108765	349.032715	1067.910522	450.654144	347.669617	1075.688721	351.455536	422.822540	955.572998	576.273132	427.124634	943.646912	210.955521	435.795135	804.236572	592.209595	457.328888	718.378296	587.877808	494.498291	719.124390	579.741028	434.193268	635.056152	577.731201	438.096710	512.089111	558.768188	422.457062	499.930603	455.327454	398.425354	387.299072	593.265381	421.482605	301.329712	575.799438	398.209808	218.366394	569.230469	448.108856	305.954987	545.756104	392.475220	97.779213	555.634399	407.457642	122.371498	469.931152	321.422791	65.403000	507.930603	612.047058	79.120491	510.490448	535.370483	47.899155	577.131348	538.665405	47.786400	464.042450	443.996918	814.978271	188.772797	463.395355	729.691833	192.588394	499.628418	730.514587	201.047043	436.240021	645.384277	195.626144	430.002045	518.563721	216.292328	435.506653	496.299591	314.849731	381.845306	106.985458	221.596985	411.974823	126.473656	301.816284	325.136017	74.234184	264.438629	541.927490	47.215427	295.860748	528.708252	43.047344	181.187561	408.716156	394.115112	190.166672	422.377716	310.628021	207.453842	393.808502	227.070892	207.387253	443.737823	313.125763	239.866669	610.508728	81.695435	243.138763	
753	3.7650	420.649170	1529.607056	594.027344	408.908722	1544.230713	197.397781	362.428131	1584.028198	394.530548	492.511841	1487.552002	393.055878	378.392456	1236.600342	679.983337	451.083618	959.510864	791.847778	386.001801	1243.886108	97.501846	441.765717	972.111572	-6.389305	327.285980	1028.167358	403.304352	472.703461	1094.444702	237.359924	479.003418	1100.227173	554.763367	522.677063	1036.534790	268.392700	535.559326	1033.885986	520.101379	349.082245	1067.900635	450.676636	347.722748	1075.690674	351.454102	422.858856	955.575928	576.273987	427.163147	943.646240	210.931107	435.809967	804.237000	592.212891	457.346863	718.370972	587.875488	494.520538	719.105286	579.734985	434.178986	635.075317	577.744446	438.109314	512.101501	558.776794	422.438477	499.931671	455.314972	398.447571	387.285492	593.248840	421.455780	301.345673	575.799927	398.228729	218.371750	569.222107	448.108215	305.954712	545.755981	392.465759	97.798195	555.636963	407.426849	122.374138	469.950073	321.401794	65.432747	507.909729	612.059814	79.123390	510.507355	535.391846	47.899303	577.119873	538.645996	47.773048	464.040710	444.031433	814.978760	188.784241	463.436035	729.696777	192.570511	499.682465	730.517578	201.059647	436.394531	645.343689	195.834274	429.994324	518.561829	216.295685	435.548859	496.307495	314.844116	381.857727	106.980591	221.621979	411.974823	126.473656	301.816284	325.139252	74.235840	264.429474	541.955933	47.236828	295.875275	528.730713	43.041889	181.175217	408.748718	394.120117	190.149628	422.377411	310.630463	207.456802	393.811829	227.058731	207.380600	443.774506	313.116089	239.876907	610.499023	81.669319	243.124100	
